<svg xmlns:xlink="http://www.w3.org/1999/xlink" width="48" xmlns="http://www.w3.org/2000/svg" height="48" id="screenshot-bb36a6c9-6698-8088-8001-87c622cd4416" viewBox="0 0 48 48" style="-webkit-print-color-adjust: exact;" fill="none" version="1.1"><g id="shape-bb36a6c9-6698-8088-8001-87c622cd4416" width="48" height="48" rx="0" ry="0" style="fill: rgb(0, 0, 0);"><g id="shape-bb36a6c9-6698-8088-8001-87c622d25fa7"><g id="fills-bb36a6c9-6698-8088-8001-87c622d25fa7"><path fill="none" rx="0" ry="0" d="M0,0L48,0L48,48L0,48ZZ" style="fill: none;"/></g></g><g id="shape-bb36a6c9-6698-8088-8001-87c622d6b1d1"><g id="fills-bb36a6c9-6698-8088-8001-87c622d6b1d1"><path rx="0" ry="0" d="M20.17,31.17L23,34L33,24L23,14L20.17,16.83L25.34,22L6,22L6,26L25.34,26L20.17,31.17ZZM38,6L10,6C7.79,6,6,7.79,6,10L6,18L10,18L10,10L38,10L38,38L10,38L10,30L6,30L6,38C6,40.21,7.79,42,10,42L38,42C40.21,42,42,40.21,42,38L42,10C42,7.79,40.21,6,38,6ZZ"/></g></g></g></svg>